<?xml version="1.0" ?><svg viewBox="0 0 64 64" xmlns="http://www.w3.org/2000/svg"><g id="outline"><path d="M34.892,37.863a1.035,1.035,0,0,0-.711-.285,1,1,0,0,0-.7.3l-4.2,4.29a1,1,0,0,0-.194.3,1.052,1.052,0,0,0-.036.108,1,1,0,0,0-.042.131l-.223,1.377a3,3,0,0,1-3.775.063l-1.5-1.174A31.107,31.107,0,0,1,18.6,38.168l-1.208-1.476a3,3,0,0,1-.02-3.775l1.371-.253a.979.979,0,0,0,.141-.049.912.912,0,0,0,.1-.035.978.978,0,0,0,.293-.2l4.2-4.29a1,1,0,0,0-.015-1.414l-8.579-8.391A.877.877,0,0,0,14.164,18a.949.949,0,0,0-.106.022.979.979,0,0,0-.272.058,1,1,0,0,0-.326.221L9.265,22.59v0l-.7.72a15.99,15.99,0,0,0,.25,22.612l7.164,7.007a16.01,16.01,0,0,0,22.611-.251l.706-.722h0l4.2-4.289a1,1,0,0,0-.016-1.414Zm-20.7-17.449,7.149,6.992-2.8,2.86-7.149-6.992ZM37.155,51.281a14.005,14.005,0,0,1-19.784.22l-7.163-7.007a13.986,13.986,0,0,1-.219-19.783L10,24.7l6.509,6.366a.992.992,0,0,0-.369.227,5,5,0,0,0-.295,6.663l1.208,1.475a33.194,33.194,0,0,0,5.228,5.115l1.5,1.175a5,5,0,0,0,6.654-.444,1,1,0,0,0,.219-.373l6.508,6.366Zm1.405-1.436-7.149-6.992,2.8-2.861,7.149,6.993Z"/><path d="M56,7H40a3,3,0,0,0-3,3v6H29a3,3,0,0,0-3,3V29a3,3,0,0,0,3,3h.586l3.707,3.707A1,1,0,0,0,34,36a.987.987,0,0,0,.383-.076A1,1,0,0,0,35,35V32H45a3,3,0,0,0,3-3V23h2v3a1,1,0,0,0,.617.924A.987.987,0,0,0,51,27a1,1,0,0,0,.707-.293L55.414,23H56a3,3,0,0,0,3-3V10A3,3,0,0,0,56,7ZM46,29a1,1,0,0,1-1,1H34a1,1,0,0,0-1,1v1.586l-2.293-2.293A1,1,0,0,0,30,30H29a1,1,0,0,1-1-1V19a1,1,0,0,1,1-1h8v2a3,3,0,0,0,3,3h6Zm11-9a1,1,0,0,1-1,1H55a1,1,0,0,0-.707.293L52,23.586V22a1,1,0,0,0-1-1H40a1,1,0,0,1-1-1V10a1,1,0,0,1,1-1H56a1,1,0,0,1,1,1Z"/><path d="M47.62,11.08a.933.933,0,0,0-.33.21A1.05,1.05,0,0,0,47,12a1,1,0,1,0,2,0,1.05,1.05,0,0,0-.29-.71A1,1,0,0,0,47.62,11.08Z"/><rect height="5" width="2" x="47" y="14"/><path d="M33.71,25.29l-.15-.12a.757.757,0,0,0-.18-.09.636.636,0,0,0-.18-.06,1.018,1.018,0,0,0-.91.27,1.032,1.032,0,0,0-.21.33.99.99,0,0,0,.21,1.09,1.461,1.461,0,0,0,.33.22A1,1,0,0,0,33,27a.99.99,0,0,0,.92-1.38A1.032,1.032,0,0,0,33.71,25.29Z"/><path d="M37.71,25.29l-.15-.12a.757.757,0,0,0-.18-.09.636.636,0,0,0-.18-.06,1.018,1.018,0,0,0-.91.27,1.032,1.032,0,0,0-.21.33,1,1,0,1,0,1.84,0A1.155,1.155,0,0,0,37.71,25.29Z"/><path d="M40.29,26.71A.994.994,0,0,0,41,27a1,1,0,0,0,.38-.07,1.461,1.461,0,0,0,.33-.22,1.169,1.169,0,0,0,.21-.33.943.943,0,0,0,0-.76,1.155,1.155,0,0,0-.21-.33c-.05-.04-.1-.08-.16-.12a.556.556,0,0,0-.17-.09.636.636,0,0,0-.18-.06.949.949,0,0,0-.58.06.9.9,0,0,0-.54.54.99.99,0,0,0,.21,1.09Z"/></g></svg>